<svg width="320" height="240" viewBox="0 0 320 240" fill="none" xmlns="http://www.w3.org/2000/svg">
  <rect width="320" height="240" rx="30" fill="#F9E0D9"/>
  <circle cx="160" cy="120" r="96" fill="#FFB84D"/>
  <path d="M160 27C187.092 27 211.451 42.684 223.97 67.5C231.318 81.252 234.328 96.2068 232.707 111.04C231.085 125.873 224.872 139.805 214.893 151.5C205.084 162.749 192.125 171.07 177.72 175.872C163.318 180.676 147.662 181.799 132.64 179.176C117.615 176.554 103.712 170.279 92.968 161.236C82.2249 152.193 75.155 140.731 72.6083 128.217C70.0616 115.704 72.07 102.666 78.3673 91.3464C84.6646 80.0269 94.9328 71.1659 107.799 66.8617C120.665 62.5575 134.99 63.0456 147.983 68.1848C152.85 70.0775 156.85 72.9192 160 76.5073" fill="#E58E2A"/>
  <circle cx="118" cy="102" r="12" fill="#C34B4B"/>
  <circle cx="192" cy="142" r="14" fill="#C34B4B"/>
  <circle cx="208" cy="88" r="10" fill="#C34B4B"/>
  <circle cx="138" cy="148" r="10" fill="#C34B4B"/>
  <circle cx="180" cy="62" r="8" fill="#F2DCCB"/>
  <circle cx="98" cy="118" r="10" fill="#F2DCCB"/>
</svg>
